<svg width="43" height="31" viewBox="0 0 43 31" fill="none" xmlns="http://www.w3.org/2000/svg">
<path d="M7.66667 0H42.1667V23H7.66667V0ZM24.9167 5.75C26.4417 5.75 27.9042 6.3558 28.9825 7.43413C30.0609 8.51247 30.6667 9.97501 30.6667 11.5C30.6667 13.025 30.0609 14.4875 28.9825 15.5659C27.9042 16.6442 26.4417 17.25 24.9167 17.25C23.3917 17.25 21.9291 16.6442 20.8508 15.5659C19.7725 14.4875 19.1667 13.025 19.1667 11.5C19.1667 9.97501 19.7725 8.51247 20.8508 7.43413C21.9291 6.3558 23.3917 5.75 24.9167 5.75ZM15.3333 3.83333C15.3333 4.85 14.9295 5.82502 14.2106 6.54391C13.4917 7.2628 12.5167 7.66667 11.5 7.66667V15.3333C12.5167 15.3333 13.4917 15.7372 14.2106 16.4561C14.9295 17.175 15.3333 18.15 15.3333 19.1667H34.5C34.5 18.15 34.9039 17.175 35.6228 16.4561C36.3416 15.7372 37.3167 15.3333 38.3333 15.3333V7.66667C37.3167 7.66667 36.3416 7.2628 35.6228 6.54391C34.9039 5.82502 34.5 4.85 34.5 3.83333H15.3333ZM0 7.66667H3.83333V26.8333H34.5V30.6667H0V7.66667Z" fill="white"/>
</svg>
