<svg width="40" height="26" viewBox="0 0 40 26" fill="none" xmlns="http://www.w3.org/2000/svg">
<path d="M0 0V24H20.6091C20.1697 22.66 19.97 21.32 19.97 20H7.98802C7.98802 17.8 6.21068 16 3.99401 16V8C6.21068 8 7.98802 6.22 7.98802 4H27.9581C27.9581 6.22 29.7554 8 31.9521 8V8.12C33.2901 8.12 34.6281 8.36 35.9461 8.8V0H0ZM17.973 6C14.5781 6.06 11.982 8.6 11.982 12C11.982 15.4 14.5781 17.88 17.973 18C18.7319 18 19.5107 17.84 20.2496 17.54C20.7888 15.34 21.6875 13.26 23.9041 11.22C23.6645 8.56 21.1483 5.94 17.973 6ZM37.2042 12.54L29.4758 20.34L26.7798 17.6L23.9641 20.44L29.4558 26L40 15.36L37.2042 12.54Z" fill="black"/>
</svg>
